<?xml version="1.0" encoding="UTF-8" standalone="no"?>
<!-- Copyright 2017 mathsisfun.com -->
<svg xmlns="http://www.w3.org/2000/svg" xmlns:xlink="http://www.w3.org/1999/xlink" width="404.9" height="183.6" version="1.1" style="font-family:'Comic Sans MS'; font-size:14.7px; stroke-width:0.37;">
<defs>
	<marker id="id24" style="overflow:visible;" orient="auto">
		<path transform="matrix(-0.4,0,0,-0.4,-4,0)" style="stroke:black; stroke-width:1pt;" d="M 0,0 5,-5 -12.5,0 5,5 Z"/>
	</marker>
</defs>
<g style="fill:none; stroke:currentColor; stroke-width:1;" transform="matrix(0.370815,0,0,0.370815,-27.0128,-56.4366)"/>
<g style="fill:none; stroke:#999999; stroke-width:1;" transform="matrix(0.370815,0,0,0.370815,-27.0128,-56.4366)">
	<path style="stroke:#999999; stroke-width:1;" d="m 177,531 h 946"/>
</g>
<text x="29.4" y="145.3" style="text-align:end; text-anchor:end; font-size:16px; fill:black;"> -1 </text>
<g style="fill:none; stroke:#999999; stroke-width:1;" transform="matrix(0.370815,0,0,0.370815,-27.0128,-56.4366)">
	<path style="stroke:#999999; stroke-width:1;" d="m 177,451 h 946"/>
</g>
<text x="29.4" y="115.6" style="text-align:end; text-anchor:end; font-size:16px; fill:black;"> -0.5 </text>
<g style="fill:none; stroke:currentColor; stroke-width:1;" transform="matrix(0.370815,0,0,0.370815,-27.0128,-56.4366)">
	<path style="stroke-width:1;" d="m 177,371 h 946"/>
</g>
<text x="29.4" y="86" style="text-align:end; text-anchor:end; font-size:16px; fill:black;"> 0 </text>
<g style="fill:none; stroke:#999999; stroke-width:1;" transform="matrix(0.370815,0,0,0.370815,-27.0128,-56.4366)">
	<path style="stroke:#999999; stroke-width:1;" d="m 177,291 h 946"/>
</g>
<text x="29.4" y="56.3" style="text-align:end; text-anchor:end; font-size:16px; fill:black;"> 0.5 </text>
<g style="fill:none; stroke:#999999; stroke-width:1;" transform="matrix(0.370815,0,0,0.370815,-27.0128,-56.4366)">
	<path style="stroke:#999999; stroke-width:1;" d="m 177,210 h 946"/>
</g>
<text x="29.4" y="26.3" style="text-align:end; text-anchor:end; font-size:16px; fill:black;"> 1 </text>
<g style="fill:none; stroke:#999999; stroke-width:1.35;" transform="matrix(0.370815,0,0,0.204261,-14.3384,10.98)">
	<path style="stroke:#999999; stroke-width:1.35;" d="M 286,692 V 50"/>
</g>
<text x="91.8" y="167.6" style="text-align:center; text-anchor:middle; fill:#204a87;"> -3π/2 </text>
<g style="fill:none; stroke:#999999; stroke-width:1.35;" transform="matrix(0.370815,0,0,0.204261,-17.7939,10.98)">
	<path style="stroke:#999999; stroke-width:1.35;" d="M 407,692 V 50"/>
</g>
<text x="133.3" y="167.6" style="text-align:center; text-anchor:middle; fill:#204a87;"> -π </text>
<g style="fill:none; stroke:#999999; stroke-width:1.35;" transform="matrix(0.370815,0,0,0.204261,-22.9783,11.2978)">
	<path style="stroke:#999999; stroke-width:1.35;" d="M 529,692 V 50"/>
</g>
<text x="173.3" y="167.6" style="text-align:center; text-anchor:middle; fill:#204a87;"> -π/2 </text>
<g style="fill:none; stroke:currentColor; stroke-width:1.35;" transform="matrix(0.370815,0,0,0.204261,-27.0128,11.2978)">
	<path style="stroke-width:1.35;" d="M 650,692 V 50"/>
</g>
<text x="214.7" y="167.6" style="text-align:center; text-anchor:middle; fill:#204a87;"> 0 </text>
<g style="fill:none; stroke:#999999; stroke-width:1.35;" transform="matrix(0.370815,0,0,0.204261,-30.9772,11.2978)">
	<path style="stroke:#999999; stroke-width:1.35;" d="M 771,692 V 50"/>
</g>
<text x="255" y="167.6" style="text-align:center; text-anchor:middle; fill:#204a87;"> π/2</text>
<text x="295" y="167.6" style="text-align:center; text-anchor:middle; fill:#204a87;"> π </text>
<text x="335.9" y="167.6" style="text-align:center; text-anchor:middle; fill:#204a87;"> 3π/2 </text>
<g style="fill:none; stroke:currentColor; stroke-width:4;" transform="matrix(0.370815,0,0,0.370815,-27.0128,-56.4366)"/>
<g style="fill:none; stroke:currentColor; stroke-width:4;" transform="matrix(0.370815,0,0,0.370815,-27.0128,-56.4366)"/>
<path style="fill:none; stroke:#edd400; stroke-width:2;" d="m 38.6,110.8 c 1.1,-2.2 2.2,-4.5 3.3,-6.7 1,-2.9 2.3,-4.3 3,-7 1.4,-1.9 2.2,-4.8 3.3,-7 1.1,-2.7 2.5,-5.3 3.3,-8.2 1.3,-1.7 1.9,-4.5 3,-6.3 0.8,-2.2 1.9,-4.1 2.6,-6.3 1,-1.6 2,-4.4 3,-6.3 1,-2.1 1.9,-4.4 3,-6.3 1.1,-2.7 2.2,-4.8 3.3,-7 1.5,-2.6 2.4,-4.5 3.7,-7 1.2,-1.7 2.3,-3.6 3.3,-5.6 1.3,-1.6 2.7,-3.9 4.1,-5.6 1.7,-1.8 3,-4 5.2,-5.6 1.8,-1.3 3.3,-3.1 5.9,-3.3 1.8,-1.3 6.3,-0.9 8.5,0 2.2,0.9 4,2.2 5.6,3.7 1.8,1.3 3.3,3.4 4.8,5.2 1.5,1.9 3,3.9 4.1,5.9 1.4,1.7 2.5,4.2 3.7,5.9 1,2.2 2.7,4.9 3.7,7 1.1,2.5 2.6,4.2 3.3,7.4 1.1,1.6 2.1,3.4 2.6,5.6 1.3,1.6 1.7,4 3,5.9 0.8,2.4 2.3,4.7 3,7.4 1.2,1.6 1.6,3.8 2.6,5.6 1.1,2.7 2.6,5.8 3.7,8.5 1.3,2.8 2.4,5.8 3.7,8.2 0.8,2.6 2.2,4.2 3,7 1.2,1.6 1.9,3.8 3,5.6 1.1,2.3 2.3,4.7 3.7,7 1.1,2.3 2.6,4.2 3.7,6.3 1.1,1.8 2.7,3.6 3.7,5.6 1.4,1.4 2.7,2.9 4.1,4.5 2,1.6 3.1,3.2 5.6,4.1 1.8,1.7 5.4,1.6 8.9,1.5 1.5,-0.9 3.4,-1.5 4.8,-2.6 2.5,-1.4 3.8,-3.7 5.9,-5.2 1.1,-2.3 3.1,-3.8 4.1,-5.9 1.4,-1.7 2.7,-4 3.7,-5.9 1.2,-1.7 2.4,-4 3.3,-5.9 1.4,-2.5 3.2,-6.4 4.5,-8.9 1.2,-2.1 2.2,-4.8 3.3,-7 1.1,-2.5 2.2,-5.1 3.3,-7.4 1,-2.9 2.2,-4.3 3,-7.4 1.3,-1.7 1.9,-4.5 3,-6.3 1,-2.9 2.2,-4.3 3,-7.4 1.3,-1.6 1.7,-4 3,-5.9 0.8,-2.2 2,-4.6 3,-6.7 1.2,-2.6 3,-5.8 4.5,-9.3 1.2,-1.7 2.1,-4 3.3,-5.9 0.9,-2.1 2.5,-3.5 3.3,-5.9 1.5,-1.5 2.7,-3.6 4.1,-5.6 1.9,-1.9 3.2,-3.8 5.2,-5.2 1.8,-1.8 3.8,-2.6 5.9,-3.7 2.8,-0.8 7.3,-0.5 9.3,0.7 2.2,1 3.8,2.6 5.6,4.1 1.8,2.1 3.4,3.5 4.8,5.6 1.5,2.2 3,4 4.1,6.3 1.2,1.6 2.6,3.7 3.3,5.9 1.7,1.8 2.2,4 3.3,5.9 1.1,2.2 2.2,4.4 3.3,6.7 1,2.9 2.3,4.3 3,7 1.4,1.8 2.1,4.7 3.3,7 1.1,2.7 2.6,5.8 3.7,8.5 0.9,2.1 1.9,4 2.6,6.3 1.2,1.9 1.9,4.5 3,6.3 0.9,2.6 2.2,4.6 3,7 1,2.1 2,3.7 3,6.3 1.1,2.2 2.2,4.4 3.3,6.7 1.1,2.3 2.7,4.9 3.7,7 1.3,1.7 2.5,4.2 3.7,5.9 1.2,1.8 2.6,3.9 4.1,5.6 1.4,1.9 3,3.9 4.8,5.2 1.9,1.5 3.5,3 6.7,3.7 2.1,0.8 6,0.4 7.8,-0.4 2.4,-0.8 4.1,-2.7 6.3,-4.1 1.4,-1.7 3.1,-3.6 4.5,-5.2 1.1,-1.8 2.8,-3.6 3.7,-5.6 1.2,-1.7 2.3,-3.6 3.3,-5.6 1.5,-2.2 2.1,-4.3 3.7,-6.7 1.1,-2.4 2.5,-4.4 3.3,-7.4 1.2,-1.6 2.2,-4.1 3,-6.3 1.1,-1.5 2,-3.9 2.6,-5.6 0.9,-2 2.1,-3.8 2.6,-6.3 1.3,-1.7 2.2,-4.4 3,-6.7 1.3,-1.7 1.9,-4.5 3,-6.3 1.1,-3.1 2.7,-5.7 3.7,-8.9 1.1,-1.4 1.6,-3.8 2.6,-5.2 1.3,-3.3 2.5,-5.2 3.7,-7.8 -0.4,-0.8 0.8,0 0.4,-0.7"/>
<g style="fill:none; stroke:currentColor; stroke-width:4;" transform="matrix(0.370815,0,0,0.370815,-27.0128,-56.4366)"/>
<text x="375.9" y="168" style="text-align:center; text-anchor:middle; fill:#204a87;"> 2π </text>
<g style="fill:none; stroke:#999999; stroke-width:1.35;" transform="matrix(0.370815,0,0,0.204261,-53.5738,11.0345)">
	<path style="stroke:#999999; stroke-width:1.35;" d="M 286,692 V 50"/>
</g>
<text x="52.2" y="167.7" style="text-align:center; text-anchor:middle; fill:#204a87;"> -2π </text>
<g style="fill:none; stroke:#999999; stroke-width:1.35;" transform="matrix(0.370815,0,0,0.204261,89.657,11.2978)">
	<path style="stroke:#999999; stroke-width:1.35;" d="M 771,692 V 50"/>
</g>
<g style="fill:none; stroke:#999999; stroke-width:1.35;" transform="matrix(0.370815,0,0,0.204261,9.23377,11.2978)">
	<path style="stroke:#999999; stroke-width:1.35;" d="M 771,692 V 50"/>
</g>
<g style="fill:none; stroke:#999999; stroke-width:1.35;" transform="matrix(0.370815,0,0,0.204261,49.446,11.2978)">
	<path style="stroke:#999999; stroke-width:1.35;" d="M 771,692 V 50"/>
</g>
<use transform="matrix(0.370815,0,0,0.168676,310.652,61.5954)" xlink:href="#id6" x="-160" y="0"/>
<g style="opacity:0.4;" transform="matrix(0.370815,0,0,0.370815,-439.399,262.63)">
	<use xlink:href="#id6" x="-80" y="0"/>
	<use xlink:href="#id6" x="-40" y="0"/>
	<use xlink:href="#id6" x="40" y="0"/>
	<use xlink:href="#id6" x="80" y="0"/>
	<use xlink:href="#id7" x="0" y="125.7"/>
	<use xlink:href="#id7" x="0" y="62.8"/>
	<use xlink:href="#id7" x="0" y="-62.8"/>
	<use xlink:href="#id7" x="0" y="-125.7"/>
	<use xlink:href="#id7" x="0" y="-188.5"/>
	<use xlink:href="#id7" x="0" y="-251.3"/>
</g>
<use transform="matrix(0.370815,0,0,0.370815,-439.399,262.63)" xlink:href="#id8" x="111" y="16"/>
<use transform="matrix(0.370815,0,0,0.370815,-439.399,262.63)" xlink:href="#id9" x="-6" y="-149"/>
<use transform="matrix(0.370815,0,0,0.370815,-439.399,262.63)" xlink:href="#id10" x="15" y="99"/>
<use transform="matrix(0.370815,0,0,0.370815,-439.399,262.63)" xlink:href="#id11" x="15" y="-215"/>
<g style="stroke:white; stroke-width:350px; stroke-linejoin:round;" transform="matrix(0.370815,0,0,0.370815,-439.399,271.901)">
	<use xlink:href="#id12" x="-80" y="0"/>
	<use xlink:href="#id13" x="-40" y="0"/>
	<use xlink:href="#id14" x="40" y="0"/>
	<use xlink:href="#id15" x="80" y="0"/>
</g>
<g style="stroke:white; stroke-width:350px; stroke-linejoin:round;" transform="matrix(0.370815,0,0,0.370815,-442.366,265.226)">
	<use xlink:href="#id16" x="0" y="125.7"/>
	<use xlink:href="#id17" x="0" y="62.8"/>
	<use xlink:href="#id18" x="0" y="-62.8"/>
	<use xlink:href="#id19" x="0" y="-125.7"/>
	<use xlink:href="#id20" x="0" y="-188.5"/>
	<use xlink:href="#id21" x="0" y="-251.3"/>
</g>
<use transform="matrix(0.370815,0,0,0.370815,-439.399,262.63)" xlink:href="#id8" x="111" y="16"/>
<use transform="matrix(0.370815,0,0,0.370815,-439.399,262.63)" xlink:href="#id9" x="-6" y="-276"/>
<g transform="matrix(0.370815,0,0,0.370815,-439.399,271.901)">
	<use xlink:href="#id12" x="-80" y="0"/>
	<use xlink:href="#id13" x="-40" y="0"/>
	<use xlink:href="#id14" x="40" y="0"/>
	<use xlink:href="#id15" x="80" y="0"/>
</g>
<g transform="matrix(0.370815,0,0,0.370815,-442.366,265.226)">
	<use xlink:href="#id16" x="0" y="125.7"/>
	<use xlink:href="#id17" x="0" y="62.8"/>
	<use xlink:href="#id18" x="0" y="-62.8"/>
	<use xlink:href="#id19" x="0" y="-125.7"/>
	<use xlink:href="#id20" x="0" y="-188.5"/>
	<use xlink:href="#id21" x="0" y="-251.3"/>
</g>
<g transform="matrix(0.370815,0,0,0.370815,-439.399,262.63)">
	<use xlink:href="#id22" x="-80" y="0"/>
	<use xlink:href="#id22" x="-40" y="0"/>
	<use xlink:href="#id22" x="40" y="0"/>
	<use xlink:href="#id22" x="80" y="0"/>
	<use xlink:href="#id23" x="0" y="125.7"/>
	<use xlink:href="#id23" x="0" y="62.8"/>
	<use xlink:href="#id23" x="0" y="-62.8"/>
	<use xlink:href="#id23" x="0" y="-125.7"/>
	<use xlink:href="#id23" x="0" y="-188.5"/>
	<use xlink:href="#id23" x="0" y="-251.3"/>
</g>
<g style="opacity:0.4;" transform="matrix(0.370815,0,0,0.370815,146.199,50.1721)">
	<use xlink:href="#id6" x="-80" y="0"/>
	<use xlink:href="#id6" x="-40" y="0"/>
	<use xlink:href="#id6" x="40" y="0"/>
	<use xlink:href="#id6" x="80" y="0"/>
	<use xlink:href="#id7" x="0" y="125.7"/>
	<use xlink:href="#id7" x="0" y="62.8"/>
	<use xlink:href="#id7" x="0" y="-62.8"/>
	<use xlink:href="#id7" x="0" y="-125.7"/>
	<use xlink:href="#id7" x="0" y="-188.5"/>
	<use xlink:href="#id7" x="0" y="-251.3"/>
</g>
<path style="marker-end:url(#id24); fill:#2e3436; fill-opacity:0.75; stroke:#2e3436; stroke-width:1.11;" d="M 38.6,81.1 H 400"/>
<path style="marker-end:url(#id24); fill:#2e3436; fill-opacity:0.75; stroke:#2e3436; stroke-width:1.11;" d="M 213.9,153.1 V 2.2"/>
<text x="394.3" y="98.6" style="font-family:'Times New Roman'; font-weight:bold; font-size:20.8px; font-style:italic; fill:black; stroke-width:0.37px;">x</text>
<text x="196.2" y="13.1" style="font-family:'Times New Roman'; font-weight:bold; font-size:20.8px; font-style:italic; fill:black; stroke-width:0.37px;">y</text>
<text x="276.9" y="36.5" style="font-family:Arial; font-weight:bold; font-size:15.8px; font-style:italic; fill:#edd400; stroke-width:0.37px;">sin(x)</text>
<text x="36.1" y="183.5" style="font-family:Arial; font-size:13.3px; fill:#8f5902; stroke-width:1px;">-360°</text>
<text x="75.4" y="183.5" style="font-family:Arial; font-size:13.3px; fill:#8f5902; stroke-width:1px;">-270°</text>
<text x="116.8" y="183.5" style="font-family:Arial; font-size:13.3px; fill:#8f5902; stroke-width:1px;">-180°</text>
<text x="160.5" y="183.5" style="font-family:Arial; font-size:13.3px; fill:#8f5902; stroke-width:1px;">-90°</text>
<text x="244.4" y="183.5" style="font-family:Arial; font-size:13.3px; fill:#8f5902; stroke-width:1px;">90°</text>
<text x="280.3" y="183.5" style="font-family:Arial; font-size:13.3px; fill:#8f5902; stroke-width:1px;">180°</text>
<text x="321.1" y="183.5" style="font-family:Arial; font-size:13.3px; fill:#8f5902; stroke-width:1px;">270°</text>
<text x="361.4" y="183.5" style="font-family:Arial; font-size:13.3px; fill:#8f5902; stroke-width:1px;">360°</text>
</svg>